<?xml version="1.0" standalone="no"?>
<!DOCTYPE svg PUBLIC "-//W3C//DTD SVG 20010904//EN"
 "http://www.w3.org/TR/2001/REC-SVG-20010904/DTD/svg10.dtd">
<svg version="1.0" xmlns="http://www.w3.org/2000/svg"
 width="1198.000000pt" height="270.000000pt" viewBox="0 0 1198.000000 270.000000"
 preserveAspectRatio="xMidYMid meet">

<g transform="translate(0.000000,270.000000) scale(0.100000,-0.100000)"
fill="#000000" stroke="none">
<path fill="#4a6cf7" d="M967 2336 c-80 -22 -135 -76 -157 -155 -6 -21 -10 -202 -10 -447 0
-456 3 -482 62 -543 51 -53 100 -71 196 -71 l82 0 0 -134 c0 -117 2 -136 20
-158 28 -37 70 -52 112 -40 19 5 132 82 250 171 l215 161 219 0 c123 0 236 5
257 11 47 13 109 67 133 117 18 34 19 69 19 477 0 486 0 486 -62 550 -71 73
-41 70 -698 72 -462 2 -600 -1 -638 -11z m1181 -603 l2 -393 -230 0 c-176 0
-239 -3 -264 -14 -19 -8 -92 -58 -163 -111 l-128 -97 -6 74 c-9 130 -35 148
-213 148 l-126 0 0 388 c0 214 3 392 7 395 3 4 257 6 562 5 l556 -3 3 -392z"/>
<path fill="#4a6cf7" d="M2540 1883 c-40 -21 -66 -77 -56 -119 4 -15 20 -39 36 -55 l28 -29
136 0 136 0 0 -395 0 -395 -125 0 c-182 0 -204 -15 -214 -148 l-6 -73 -148
111 -148 110 -251 0 c-272 0 -304 -5 -327 -56 -22 -48 -14 -93 23 -130 l34
-34 224 0 225 0 208 -156 c114 -86 222 -162 240 -170 42 -17 96 -3 125 33 18
23 20 40 20 159 l0 134 74 0 c91 0 150 20 199 68 66 65 68 82 65 568 -3 417
-4 430 -25 469 -25 46 -54 75 -103 101 -53 28 -320 33 -370 7z"/>
<path fill="#ffffff" d="M4400 1435 l0 -465 104 0 105 0 3 204 c3 188 5 207 24 233 42 57 125
79 184 48 51 -26 55 -43 60 -270 l5 -210 103 -3 103 -3 -3 253 c-3 286 -6 298
-87 371 -94 84 -230 88 -383 9 -5 -2 -8 64 -8 147 l0 151 -105 0 -105 0 0
-465z"/>
<path fill="#ffffff" d="M10630 1435 l0 -465 100 0 100 0 0 25 c0 14 2 25 4 25 2 0 24 -11 49
-26 62 -34 162 -43 241 -20 106 31 167 84 215 186 22 47 26 69 26 150 0 81 -4
103 -26 150 -48 102 -109 155 -215 186 -77 22 -169 15 -235 -19 l-49 -26 0
149 0 150 -105 0 -105 0 0 -465z m451 22 c46 -30 69 -80 69 -147 0 -106 -59
-170 -155 -170 -95 0 -155 66 -155 170 0 104 60 170 155 170 37 0 62 -6 86
-23z"/>
<path fill="#ffffff" d="M3761 1849 c-132 -26 -257 -123 -319 -248 -36 -73 -37 -77 -37 -191
0 -114 1 -118 37 -191 115 -232 408 -326 653 -210 58 28 145 94 145 111 0 4
-32 36 -71 70 l-70 63 -32 -30 c-71 -68 -168 -89 -271 -59 -180 53 -237 296
-100 432 93 93 258 97 361 9 23 -19 45 -35 50 -35 5 0 38 30 73 66 l65 65 -45
41 c-107 97 -278 139 -439 107z"/>
<path fill="#ffffff" d="M8695 1838 c-3 -7 -4 -204 -3 -438 l3 -425 108 -3 107 -3 0 176 0
175 185 0 185 0 2 -172 3 -173 108 -3 107 -3 0 441 0 441 -107 -3 -108 -3 -3
-167 -2 -168 -185 0 -185 0 0 170 0 170 -105 0 c-75 0 -107 -4 -110 -12z"/>
<path fill="#ffffff" d="M6153 1794 c-9 -4 -13 -30 -13 -80 l0 -74 -50 0 -50 0 0 -85 0 -85
49 0 49 0 4 -172 c3 -144 7 -179 22 -208 43 -81 106 -120 207 -128 73 -5 176
19 186 44 3 8 -6 45 -20 82 -20 53 -29 66 -44 64 -10 -2 -30 -6 -45 -9 -46 -9
-75 4 -87 38 -6 18 -11 90 -11 160 l0 128 83 3 82 3 0 80 0 80 -82 3 -82 3 -3
77 -3 77 -90 2 c-49 1 -96 -1 -102 -3z"/>
<path fill="#ffffff" d="M6733 1794 c-9 -4 -13 -30 -13 -80 l0 -74 -50 0 -50 0 0 -85 0 -85
49 0 49 0 4 -172 c3 -144 7 -179 22 -208 43 -81 106 -120 207 -128 74 -5 176
19 186 44 3 8 -6 45 -19 82 -27 71 -23 69 -90 55 -46 -9 -75 4 -87 38 -6 18
-11 90 -11 160 l0 128 83 3 82 3 0 80 0 80 -82 3 -82 3 -3 77 -3 77 -90 2
c-49 1 -96 -1 -102 -3z"/>
<path fill="#ffffff" d="M5465 1650 c-53 -11 -145 -47 -170 -65 -19 -15 -19 -17 14 -78 19
-34 37 -66 42 -71 4 -5 29 1 56 14 65 31 177 39 225 16 31 -15 58 -50 58 -75
0 -5 -57 -11 -127 -14 -71 -3 -145 -10 -166 -16 -44 -14 -102 -62 -123 -102
-18 -35 -18 -129 0 -172 47 -114 253 -165 379 -94 l46 25 3 -22 c3 -20 9 -21
101 -24 l97 -3 0 229 c0 271 -8 310 -74 376 -25 25 -63 50 -92 60 -56 20 -209
29 -269 16z m225 -433 c0 -42 -24 -75 -66 -93 -93 -39 -191 16 -154 86 16 31
44 39 138 39 l82 1 0 -33z"/>
<path fill="#ffffff" d="M7487 1649 c-99 -23 -197 -104 -240 -197 -18 -38 -22 -66 -22 -142 0
-84 3 -102 28 -152 35 -72 110 -140 185 -169 150 -56 352 -24 436 70 19 21 19
21 -29 73 -27 29 -52 57 -56 61 -4 5 -26 -4 -49 -19 -49 -33 -144 -44 -204
-24 -33 11 -96 70 -96 90 0 6 94 10 244 10 l243 0 6 35 c12 73 -17 178 -66
243 -78 103 -238 154 -380 121z m156 -163 c36 -14 87 -69 87 -92 0 -11 -27
-14 -150 -14 l-150 0 11 27 c30 79 120 114 202 79z"/>
<path fill="#ffffff" d="M8413 1646 c-23 -7 -58 -23 -77 -36 l-36 -22 0 31 0 31 -100 0 -100
0 0 -340 0 -340 105 0 105 0 0 188 c0 164 3 192 20 230 24 52 86 85 153 80
l42 -3 0 95 0 95 -35 2 c-19 1 -54 -4 -77 -11z"/>
<path fill="#ffffff" d="M9727 1644 c-11 -11 -8 -359 3 -437 12 -83 36 -132 89 -180 88 -80
273 -89 364 -17 l26 20 3 -27 3 -28 98 -3 97 -3 0 341 0 341 -102 -3 -103 -3
-5 -205 c-6 -228 -10 -243 -75 -274 -62 -30 -131 -17 -162 31 -15 23 -19 57
-23 238 l-5 210 -101 3 c-55 1 -103 0 -107 -4z"/>
</g>
</svg>
